<?xml version="1.0" encoding="UTF-8" standalone="no"?><!DOCTYPE svg PUBLIC "-//W3C//DTD SVG 1.1//EN" "http://www.w3.org/Graphics/SVG/1.1/DTD/svg11.dtd"><svg width="100%" height="100%" viewBox="0 0 4000 1250" version="1.1" xmlns="http://www.w3.org/2000/svg" xmlns:xlink="http://www.w3.org/1999/xlink" xml:space="preserve" xmlns:serif="http://www.serif.com/" style="fill-rule:evenodd;clip-rule:evenodd;stroke-linejoin:round;stroke-miterlimit:2;"><rect x="0" y="-104.167" width="4000" height="1458.33" style="fill:#67ea94;"/><g><g transform="matrix(772.925,0,0,772.925,3643.05,852.24)"></g><text x="923.127px" y="852.24px" style="font-family:'UbuntuNF-Bold', 'Ubuntu Nerd Font', sans-serif;font-weight:700;font-size:772.925px;">bridger</text><g transform="matrix(-1,0,0,0.869833,2839.52,59.1674)"><g transform="matrix(743.565,0,0,743.565,1796.7,846.084)"><path d="M0.088,-0.811l0.781,0l0.004,0.112l-0.788,0l0.003,-0.112Zm-0.003,0.256l0.676,0l-0.001,0.111l-0.672,0l-0.003,-0.111Zm0.003,0.257l0.821,0l0.003,0.11l-0.827,0l0.003,-0.11Zm-0.003,0.254l0.484,0l-0.003,0.112l-0.478,0l-0.003,-0.112Z" style="fill-rule:nonzero;"/></g><g transform="matrix(743.565,0,0,743.565,2538.04,846.084)"></g></g></g></svg>
